<svg width="157" height="163" viewBox="0 0 157 163" fill="none" xmlns="http://www.w3.org/2000/svg">
<path d="M156.966 115.302C155.632 142.438 119.488 163.812 76.1157 162.976C32.7429 162.141 -1.29559 139.491 0.0378784 112.356C1.37135 85.1761 37.5153 63.846 80.8179 64.6816C124.191 65.4732 158.229 88.1228 156.966 115.302Z" fill="#00AB91"/>
<path d="M80.8179 64.6364L76.1157 162.975C32.7429 162.14 -1.29559 139.49 0.0378784 112.354C1.37135 85.175 37.5153 63.8008 80.8179 64.6364Z" fill="#008974"/>
<path d="M115.767 48.7167L114.715 70.0909L46.4272 68.8154L47.4799 47.4412C47.6905 42.4715 54.2876 38.5574 62.2885 38.7333L101.871 39.4809C109.802 39.6128 116.048 43.7909 115.767 48.7167Z" fill="white"/>
<path d="M80.6045 69.4751L46.4958 68.8154L47.5485 47.4412C47.7591 42.4715 54.3563 38.5574 62.3571 38.7333L82.1486 39.0851L80.9555 63.8017L80.6045 69.4751Z" fill="#8AF3FF"/>
<path d="M103.557 84.2082C121.944 90.5853 134.858 102.504 136.191 116.621" stroke="white" stroke-width="2" stroke-miterlimit="10"/>
<path d="M85.4789 36.0747C83.8021 37.4357 80.9959 39.1556 80.9959 39.1556C80.9959 39.1556 79.3642 34.6781 78.6037 31.7839C77.7963 28.7112 77.0514 23.9 77.0514 23.9C77.0514 23.9 76.2208 19.5219 76.3235 16.552L76.3253 16.4996C76.413 13.962 76.4709 12.2878 77.2503 9.92637C77.9043 7.94472 78.3378 6.77017 79.5365 5.24186C80.723 3.72913 81.6244 3.13007 83.1849 2.32378C84.9286 1.4228 86.0392 1.07946 87.9179 1.16821C89.5851 1.24697 90.5498 1.57222 92.0613 2.45013C93.9162 3.52741 94.9078 4.50175 96.165 6.52677C97.1471 8.10865 97.6457 9.14759 98.0421 11.0958C98.5119 13.405 98.3337 14.8667 97.9551 17.2093C97.5473 19.7324 96.9559 21.0658 95.9263 23.2951C94.51 26.3618 93.2666 27.7375 91.25 30.2168C89.1785 32.7635 87.9115 34.1003 85.4789 36.0747Z" stroke="white" stroke-width="2"/>
<path d="M74.1016 113.625C74.1016 115.521 73.7826 117.207 73.1445 118.684C72.5065 120.16 71.6042 121.409 70.4375 122.43C69.2708 123.432 67.8763 124.198 66.2539 124.727C64.6497 125.255 62.8633 125.52 60.8945 125.52C59.8008 125.52 58.7617 125.438 57.7773 125.273C56.793 125.128 55.918 124.945 55.1523 124.727C54.3867 124.49 53.7578 124.262 53.2656 124.043C52.7734 123.824 52.4544 123.651 52.3086 123.523C52.181 123.396 52.0898 123.277 52.0352 123.168C51.9805 123.059 51.9258 122.931 51.8711 122.785C51.8346 122.621 51.8073 122.421 51.7891 122.184C51.7708 121.947 51.7617 121.664 51.7617 121.336C51.7617 121.026 51.7708 120.753 51.7891 120.516C51.8255 120.26 51.8802 120.06 51.9531 119.914C52.026 119.75 52.1081 119.632 52.1992 119.559C52.3086 119.486 52.4271 119.449 52.5547 119.449C52.737 119.449 53.0195 119.568 53.4023 119.805C53.7852 120.023 54.2956 120.27 54.9336 120.543C55.5898 120.798 56.3919 121.044 57.3398 121.281C58.306 121.518 59.4453 121.637 60.7578 121.637C61.9792 121.637 63.1003 121.491 64.1211 121.199C65.1419 120.908 66.0169 120.452 66.7461 119.832C67.4935 119.212 68.0768 118.438 68.4961 117.508C68.9154 116.56 69.125 115.411 69.125 114.062C69.125 112.932 68.9427 111.939 68.5781 111.082C68.2318 110.207 67.6849 109.487 66.9375 108.922C66.2083 108.339 65.2786 107.91 64.1484 107.637C63.0182 107.345 61.6693 107.199 60.1016 107.199C58.9896 107.199 58.0326 107.254 57.2305 107.363C56.4284 107.473 55.681 107.527 54.9883 107.527C54.4779 107.527 54.1133 107.409 53.8945 107.172C53.6758 106.935 53.5664 106.479 53.5664 105.805V91.3945C53.5664 90.793 53.7031 90.3464 53.9766 90.0547C54.2682 89.763 54.6784 89.6172 55.207 89.6172H70.875C71.0208 89.6172 71.1576 89.6628 71.2852 89.7539C71.431 89.8268 71.5495 89.9453 71.6406 90.1094C71.7318 90.2734 71.7956 90.4831 71.832 90.7383C71.8867 90.9935 71.9141 91.2943 71.9141 91.6406C71.9141 92.2969 71.8229 92.8073 71.6406 93.1719C71.4583 93.5365 71.2031 93.7188 70.875 93.7188H57.668V103.645C58.306 103.553 58.9531 103.499 59.6094 103.48C60.2839 103.462 61.0586 103.453 61.9336 103.453C63.957 103.453 65.7253 103.699 67.2383 104.191C68.7513 104.665 70.0091 105.349 71.0117 106.242C72.0326 107.117 72.7982 108.184 73.3086 109.441C73.8372 110.699 74.1016 112.094 74.1016 113.625ZM105.551 113.543C105.551 115.092 105.314 116.596 104.84 118.055C104.366 119.495 103.637 120.771 102.652 121.883C101.668 122.977 100.419 123.861 98.9062 124.535C97.3932 125.191 95.6068 125.52 93.5469 125.52C92.0703 125.52 90.7669 125.337 89.6367 124.973C88.5065 124.608 87.5221 124.089 86.6836 123.414C85.8451 122.74 85.1432 121.91 84.5781 120.926C84.0312 119.941 83.5846 118.82 83.2383 117.562C82.9102 116.305 82.6732 114.928 82.5273 113.434C82.3815 111.939 82.3086 110.335 82.3086 108.621C82.3086 107.108 82.3906 105.577 82.5547 104.027C82.7188 102.478 83.0104 100.983 83.4297 99.543C83.849 98.1029 84.4141 96.7539 85.125 95.4961C85.8542 94.2201 86.7565 93.1172 87.832 92.1875C88.9258 91.2396 90.2292 90.4922 91.7422 89.9453C93.2552 89.3984 95.0143 89.125 97.0195 89.125C97.694 89.125 98.3776 89.1706 99.0703 89.2617C99.763 89.3346 100.401 89.444 100.984 89.5898C101.568 89.7174 102.06 89.8633 102.461 90.0273C102.862 90.1914 103.126 90.3281 103.254 90.4375C103.382 90.5286 103.473 90.638 103.527 90.7656C103.6 90.875 103.655 91.0026 103.691 91.1484C103.728 91.276 103.755 91.431 103.773 91.6133C103.792 91.7773 103.801 91.987 103.801 92.2422C103.801 92.5703 103.792 92.8529 103.773 93.0898C103.773 93.3268 103.737 93.5182 103.664 93.6641C103.609 93.8099 103.527 93.9193 103.418 93.9922C103.327 94.0651 103.199 94.1016 103.035 94.1016C102.835 94.1016 102.561 94.0378 102.215 93.9102C101.868 93.7826 101.449 93.6458 100.957 93.5C100.465 93.3359 99.8633 93.1901 99.1523 93.0625C98.4596 92.9349 97.6484 92.8711 96.7188 92.8711C95.0234 92.8711 93.5651 93.2174 92.3438 93.9102C91.1224 94.6029 90.1198 95.5326 89.3359 96.6992C88.5703 97.8659 87.9961 99.224 87.6133 100.773C87.2487 102.305 87.0391 103.909 86.9844 105.586C87.4583 105.312 87.987 105.039 88.5703 104.766C89.1719 104.492 89.819 104.246 90.5117 104.027C91.2227 103.809 91.9701 103.635 92.7539 103.508C93.5378 103.362 94.3763 103.289 95.2695 103.289C97.1836 103.289 98.7969 103.553 100.109 104.082C101.422 104.592 102.479 105.312 103.281 106.242C104.102 107.154 104.685 108.238 105.031 109.496C105.378 110.736 105.551 112.085 105.551 113.543ZM100.793 113.98C100.793 112.923 100.684 111.966 100.465 111.109C100.264 110.234 99.918 109.496 99.4258 108.895C98.9336 108.293 98.2773 107.828 97.457 107.5C96.6367 107.172 95.625 107.008 94.4219 107.008C93.7474 107.008 93.0729 107.072 92.3984 107.199C91.724 107.309 91.0677 107.473 90.4297 107.691C89.8099 107.892 89.2083 108.138 88.625 108.43C88.0599 108.703 87.5404 109.004 87.0664 109.332C87.0664 111.684 87.2122 113.652 87.5039 115.238C87.8138 116.824 88.2513 118.1 88.8164 119.066C89.3997 120.014 90.1198 120.698 90.9766 121.117C91.8333 121.518 92.8359 121.719 93.9844 121.719C95.151 121.719 96.1628 121.5 97.0195 121.062C97.8763 120.625 98.5872 120.042 99.1523 119.312C99.7174 118.565 100.128 117.736 100.383 116.824C100.656 115.895 100.793 114.947 100.793 113.98Z" fill="white"/>
<path d="M70.4375 122.43L73.6963 126.222L73.7132 126.207L73.73 126.193L70.4375 122.43ZM66.2539 124.727L64.7049 119.973L64.6969 119.975L64.689 119.978L66.2539 124.727ZM57.7773 125.273L58.5993 120.341L58.5548 120.334L58.5101 120.327L57.7773 125.273ZM55.1523 124.727L53.6739 129.503L53.7262 129.519L53.7787 129.534L55.1523 124.727ZM52.3086 123.523L48.7731 127.059L48.8908 127.177L49.0161 127.286L52.3086 123.523ZM51.8711 122.785L46.9902 123.87L47.0663 124.212L47.1894 124.541L51.8711 122.785ZM51.7891 120.516L46.8393 119.809L46.8163 119.97L46.8038 120.132L51.7891 120.516ZM51.9531 119.914L56.4253 122.15L56.4761 122.049L56.5222 121.945L51.9531 119.914ZM52.1992 119.559L49.4257 115.398L49.2452 115.519L49.0757 115.654L52.1992 119.559ZM53.4023 119.805L50.7706 124.056L50.8453 124.102L50.9216 124.146L53.4023 119.805ZM54.9336 120.543L52.964 125.139L53.0421 125.172L53.1214 125.203L54.9336 120.543ZM57.3398 121.281L56.1272 126.132L56.1379 126.135L56.1487 126.137L57.3398 121.281ZM64.1211 121.199L62.7475 116.392L64.1211 121.199ZM66.7461 119.832L63.5544 115.983L63.531 116.003L63.5079 116.022L66.7461 119.832ZM68.4961 117.508L73.054 119.563L73.0615 119.547L73.0688 119.53L68.4961 117.508ZM68.5781 111.082L63.9291 112.922L63.9525 112.981L63.9774 113.04L68.5781 111.082ZM66.9375 108.922L63.814 112.826L63.8674 112.869L63.922 112.91L66.9375 108.922ZM64.1484 107.637L62.899 112.478L62.9358 112.488L62.9727 112.497L64.1484 107.637ZM53.9766 90.0547L50.441 86.5192L50.384 86.5762L50.3289 86.635L53.9766 90.0547ZM71.2852 89.7539L68.379 93.8226L68.6982 94.0506L69.0491 94.226L71.2852 89.7539ZM71.832 90.7383L66.8823 91.4454L66.9068 91.6167L66.943 91.7859L71.832 90.7383ZM71.6406 93.1719L67.1685 90.9358L71.6406 93.1719ZM57.668 93.7188V88.7188H52.668V93.7188H57.668ZM57.668 103.645H52.668V109.41L58.3751 108.594L57.668 103.645ZM59.6094 103.48L59.4743 98.4823L59.4705 98.4824L59.6094 103.48ZM67.2383 104.191L65.6916 108.946L65.7175 108.955L65.7436 108.963L67.2383 104.191ZM71.0117 106.242L67.6857 109.975L67.7214 110.007L67.7578 110.038L71.0117 106.242ZM73.3086 109.441L68.6755 111.321L68.6872 111.35L68.6992 111.379L73.3086 109.441ZM69.1016 113.625C69.1016 114.959 68.8782 115.952 68.5547 116.7L77.7344 120.667C78.6869 118.463 79.1016 116.083 79.1016 113.625H69.1016ZM68.5547 116.7C68.2001 117.521 67.7311 118.154 67.145 118.667L73.73 126.193C75.4772 124.664 76.813 122.799 77.7344 120.667L68.5547 116.7ZM67.1787 118.638C66.5649 119.165 65.7681 119.626 64.7049 119.973L67.803 129.481C69.9845 128.77 71.9768 127.7 73.6963 126.222L67.1787 118.638ZM64.689 119.978C63.6655 120.315 62.4176 120.52 60.8945 120.52V130.52C63.3089 130.52 65.634 130.195 67.8188 129.475L64.689 119.978ZM60.8945 120.52C60.0502 120.52 59.2876 120.456 58.5993 120.341L56.9553 130.205C58.2358 130.419 59.5513 130.52 60.8945 130.52V120.52ZM58.5101 120.327C57.6913 120.206 57.037 120.065 56.5259 119.919L53.7787 129.534C54.799 129.826 55.8947 130.049 57.0446 130.219L58.5101 120.327ZM56.6308 119.95C55.972 119.746 55.5449 119.584 55.2963 119.474L51.2349 128.612C51.9708 128.939 52.8015 129.233 53.6739 129.503L56.6308 119.95ZM55.2963 119.474C55.2127 119.437 55.1496 119.407 55.1041 119.385C55.0576 119.363 55.0391 119.353 55.0427 119.355C55.0432 119.355 55.09 119.38 55.1667 119.43C55.2066 119.456 55.2635 119.494 55.3324 119.544C55.4001 119.594 55.4932 119.666 55.6011 119.761L49.0161 127.286C49.8157 127.986 50.8253 128.43 51.2349 128.612L55.2963 119.474ZM55.8441 119.988C55.9031 120.047 55.9977 120.147 56.1077 120.29C56.216 120.431 56.3639 120.645 56.5073 120.932L47.563 125.404C47.9431 126.164 48.4286 126.715 48.7731 127.059L55.8441 119.988ZM56.5073 120.932C56.5291 120.976 56.5427 121.006 56.5489 121.021C56.5552 121.035 56.5563 121.039 56.5527 121.03L47.1894 124.541C47.2898 124.808 47.4124 125.103 47.563 125.404L56.5073 120.932ZM56.752 121.701C56.7692 121.778 56.776 121.826 56.7774 121.836C56.779 121.848 56.7772 121.837 56.7743 121.8L46.8038 122.567C46.8334 122.952 46.8862 123.402 46.9902 123.87L56.752 121.701ZM56.7743 121.8C56.7688 121.728 56.7617 121.58 56.7617 121.336H46.7617C46.7617 121.748 46.7729 122.165 46.8038 122.567L56.7743 121.8ZM56.7617 121.336C56.7617 121.118 56.7683 120.977 56.7743 120.899L46.8038 120.132C46.7733 120.528 46.7617 120.934 46.7617 121.336H56.7617ZM56.7388 121.223C56.7344 121.254 56.7196 121.349 56.6812 121.489C56.6443 121.625 56.5697 121.861 56.4253 122.15L47.481 117.678C47.0699 118.5 46.913 119.293 46.8393 119.809L56.7388 121.223ZM56.5222 121.945C56.4612 122.082 56.3542 122.297 56.1803 122.548C56.0072 122.798 55.7324 123.135 55.3227 123.463L49.0757 115.654C48.1127 116.425 47.623 117.346 47.3841 117.883L56.5222 121.945ZM54.9727 123.719C54.287 124.176 53.4453 124.449 52.5547 124.449V114.449C51.4089 114.449 50.3302 114.795 49.4257 115.398L54.9727 123.719ZM52.5547 124.449C52.0767 124.449 51.7018 124.374 51.4752 124.317C51.2402 124.257 51.067 124.19 50.9697 124.149C50.7856 124.072 50.7089 124.018 50.7706 124.056L56.0341 115.553C55.713 115.355 55.3036 115.123 54.837 114.927C54.4439 114.762 53.6128 114.449 52.5547 114.449V124.449ZM50.9216 124.146C51.5356 124.497 52.2379 124.828 52.964 125.139L56.9032 115.947C56.3532 115.712 56.0348 115.55 55.883 115.463L50.9216 124.146ZM53.1214 125.203C54.0318 125.557 55.0473 125.862 56.1272 126.132L58.5525 116.431C57.7366 116.227 57.1479 116.039 56.7458 115.883L53.1214 125.203ZM56.1487 126.137C57.6057 126.495 59.1634 126.637 60.7578 126.637V116.637C59.7273 116.637 59.0062 116.542 58.531 116.425L56.1487 126.137ZM60.7578 126.637C62.3755 126.637 63.966 126.444 65.4947 126.007L62.7475 116.392C62.2345 116.538 61.5828 116.637 60.7578 116.637V126.637ZM65.4947 126.007C67.1256 125.541 68.6551 124.772 69.9843 123.642L63.5079 116.022C63.3788 116.132 63.1582 116.274 62.7475 116.392L65.4947 126.007ZM69.9378 123.681C71.3007 122.551 72.338 121.151 73.054 119.563L63.9382 115.452C63.8157 115.724 63.6862 115.874 63.5544 115.983L69.9378 123.681ZM73.0688 119.53C73.8411 117.784 74.125 115.907 74.125 114.062H64.125C64.125 114.916 63.9897 115.336 63.9234 115.485L73.0688 119.53ZM74.125 114.062C74.125 112.4 73.8568 110.717 73.1789 109.124L63.9774 113.04C64.0286 113.16 64.125 113.465 64.125 114.062H74.125ZM73.2272 109.242C72.545 107.519 71.4349 106.054 69.953 104.934L63.922 112.91C63.9349 112.92 63.939 112.924 63.9374 112.923C63.9368 112.922 63.9353 112.921 63.9332 112.918C63.9311 112.916 63.9288 112.913 63.9264 112.91C63.9241 112.907 63.9221 112.904 63.9206 112.902C63.919 112.899 63.9183 112.898 63.9182 112.898C63.9179 112.897 63.9221 112.905 63.9291 112.922L73.2272 109.242ZM70.061 105.018C68.638 103.879 66.9959 103.181 65.3242 102.777L62.9727 112.497C63.5614 112.639 63.7787 112.798 63.814 112.826L70.061 105.018ZM65.3978 102.795C63.7474 102.369 61.9567 102.199 60.1016 102.199V112.199C61.3818 112.199 62.289 112.321 62.899 112.478L65.3978 102.795ZM60.1016 102.199C58.8406 102.199 57.646 102.26 56.5549 102.409L57.906 112.317C58.4191 112.247 59.1385 112.199 60.1016 112.199V102.199ZM56.5549 102.409C55.9404 102.493 55.4211 102.527 54.9883 102.527V112.527C55.9408 112.527 56.9164 112.452 57.906 112.317L56.5549 102.409ZM54.9883 102.527C55.0775 102.527 56.4101 102.526 57.5685 103.78L50.2205 110.563C51.8164 112.292 53.8782 112.527 54.9883 112.527V102.527ZM57.5685 103.78C58.2427 104.511 58.4501 105.234 58.5104 105.485C58.5778 105.766 58.5664 105.905 58.5664 105.805H48.5664C48.5664 106.379 48.6097 107.083 48.7865 107.819C48.9561 108.526 49.3276 109.596 50.2205 110.563L57.5685 103.78ZM58.5664 105.805V91.3945H48.5664V105.805H58.5664ZM58.5664 91.3945C58.5664 91.4366 58.5699 92.4657 57.6242 93.4744L50.3289 86.635C48.8364 88.227 48.5664 90.1494 48.5664 91.3945H58.5664ZM57.5121 93.5902C56.6216 94.4807 55.6133 94.6172 55.207 94.6172V84.6172C53.7435 84.6172 51.9148 85.0453 50.441 86.5192L57.5121 93.5902ZM55.207 94.6172H70.875V84.6172H55.207V94.6172ZM70.875 94.6172C69.8988 94.6172 69.0319 94.289 68.379 93.8226L74.1913 85.6852C73.2832 85.0365 72.1429 84.6172 70.875 84.6172V94.6172ZM69.0491 94.226C68.1628 93.7829 67.5918 93.1172 67.2698 92.5376L76.0114 87.6812C75.5071 86.7734 74.6992 85.8707 73.5212 85.2818L69.0491 94.226ZM67.2698 92.5376C66.9764 92.0095 66.9021 91.5841 66.8823 91.4454L76.7818 90.0312C76.689 89.3821 76.4871 88.5374 76.0114 87.6812L67.2698 92.5376ZM66.943 91.7859C66.9224 91.6896 66.9158 91.6272 66.9141 91.608C66.9123 91.5879 66.9141 91.5972 66.9141 91.6406H76.9141C76.9141 91.0489 76.869 90.3809 76.721 89.6906L66.943 91.7859ZM66.9141 91.6406C66.9141 91.7476 66.9058 91.736 66.9236 91.6367C66.9405 91.5418 66.9964 91.2799 67.1685 90.9358L76.1128 95.4079C76.7912 94.051 76.9141 92.6517 76.9141 91.6406H66.9141ZM67.1685 90.9358C67.3362 90.6004 67.7012 90.017 68.4063 89.5134C69.1675 88.9697 70.0482 88.7188 70.875 88.7188V98.7188C73.591 98.7188 75.3296 96.9742 76.1128 95.4079L67.1685 90.9358ZM70.875 88.7188H57.668V98.7188H70.875V88.7188ZM52.668 93.7188V103.645H62.668V93.7188H52.668ZM58.3751 108.594C58.8213 108.531 59.2786 108.492 59.7482 108.479L59.4705 98.4824C58.6276 98.5058 57.7907 98.5762 56.9609 98.6948L58.3751 108.594ZM59.7445 108.479C60.363 108.462 61.0912 108.453 61.9336 108.453V98.4531C61.026 98.4531 60.2047 98.4626 59.4743 98.4823L59.7445 108.479ZM61.9336 108.453C63.5674 108.453 64.7925 108.654 65.6916 108.946L68.785 99.4367C66.658 98.7448 64.3466 98.4531 61.9336 98.4531V108.453ZM65.7436 108.963C66.7004 109.262 67.3001 109.632 67.6857 109.975L74.3377 102.509C72.7182 101.066 70.8022 100.068 68.7329 99.42L65.7436 108.963ZM67.7578 110.038C68.1665 110.389 68.4623 110.796 68.6755 111.321L77.9417 107.561C77.1341 105.571 75.8986 103.846 74.2657 102.446L67.7578 110.038ZM68.6992 111.379C68.9403 111.952 69.1016 112.678 69.1016 113.625H79.1016C79.1016 111.51 78.7342 109.446 77.918 107.504L68.6992 111.379ZM104.84 118.055L109.589 119.618L109.592 119.609L109.595 119.6L104.84 118.055ZM102.652 121.883L106.369 125.228L106.383 125.212L106.396 125.197L102.652 121.883ZM98.9062 124.535L100.896 129.122L100.919 129.112L100.942 129.102L98.9062 124.535ZM86.6836 123.414L83.5498 127.31L86.6836 123.414ZM84.5781 120.926L80.2073 123.354L80.2244 123.385L80.2419 123.415L84.5781 120.926ZM83.2383 117.562L78.4002 118.825L78.4087 118.857L78.4177 118.89L83.2383 117.562ZM83.4297 99.543L78.629 98.1453L83.4297 99.543ZM85.125 95.4961L80.7838 93.0154L80.778 93.0256L80.7722 93.0358L85.125 95.4961ZM87.832 92.1875L91.1018 95.9702L91.1067 95.9659L87.832 92.1875ZM99.0703 89.2617L98.418 94.219L98.4824 94.2275L98.5469 94.2342L99.0703 89.2617ZM100.984 89.5898L99.7717 94.4406L99.8435 94.4585L99.9159 94.4743L100.984 89.5898ZM103.254 90.4375L100 94.2338L100.168 94.3777L100.348 94.5062L103.254 90.4375ZM103.527 90.7656L98.9316 92.7352L99.1124 93.1572L99.3671 93.5391L103.527 90.7656ZM103.691 91.1484L98.8407 92.3611L98.8609 92.4419L98.8838 92.522L103.691 91.1484ZM103.773 91.6133L98.7983 92.1108L98.801 92.1381L98.804 92.1654L103.773 91.6133ZM103.773 93.0898L98.7882 92.7064L98.7734 92.8978V93.0898H103.773ZM103.664 93.6641L99.1919 91.428L99.0746 91.6627L98.9824 91.9084L103.664 93.6641ZM103.418 93.9922L100.644 89.8319L100.464 89.9523L100.294 90.0878L103.418 93.9922ZM100.957 93.5L99.3759 98.2434L99.4558 98.2701L99.5366 98.294L100.957 93.5ZM99.1523 93.0625L98.2465 97.9798L98.2578 97.9818L98.269 97.9839L99.1523 93.0625ZM89.3359 96.6992L85.1857 93.9108L85.1706 93.9333L85.1557 93.9559L89.3359 96.6992ZM87.6133 100.773L82.7592 99.5742L82.7542 99.5947L82.7492 99.6153L87.6133 100.773ZM86.9844 105.586L81.987 105.423L81.694 114.411L89.483 109.917L86.9844 105.586ZM88.5703 104.766L86.5013 100.214L86.4746 100.226L86.4481 100.238L88.5703 104.766ZM90.5117 104.027L89.0413 99.2484L89.0237 99.2539L89.0061 99.2594L90.5117 104.027ZM92.7539 103.508L93.5573 108.443L93.613 108.434L93.6684 108.423L92.7539 103.508ZM100.109 104.082L98.2413 108.72L98.2692 108.731L98.2971 108.742L100.109 104.082ZM103.281 106.242L99.4955 109.508L99.5297 109.548L99.5648 109.587L103.281 106.242ZM105.031 109.496L100.211 110.824L100.213 110.833L100.216 110.842L105.031 109.496ZM100.465 111.109L95.5912 112.226L95.605 112.286L95.6203 112.346L100.465 111.109ZM92.3984 107.199L93.1988 112.135L93.2635 112.124L93.3279 112.112L92.3984 107.199ZM90.4297 107.691L91.9688 112.449L92.0102 112.435L92.0513 112.421L90.4297 107.691ZM88.625 108.43L90.8028 112.93L90.832 112.916L90.8611 112.902L88.625 108.43ZM87.0664 109.332L84.2204 105.221L82.0664 106.712V109.332H87.0664ZM87.5039 115.238L82.5864 116.143L82.5914 116.17L82.5967 116.197L87.5039 115.238ZM88.8164 119.066L84.5005 121.591L84.5288 121.639L84.5581 121.687L88.8164 119.066ZM90.9766 121.117L88.7788 125.608L88.8177 125.627L88.8569 125.646L90.9766 121.117ZM99.1523 119.312L103.104 122.375L103.123 122.352L103.141 122.328L99.1523 119.312ZM100.383 116.824L95.586 115.413L95.5768 115.445L95.568 115.476L100.383 116.824ZM100.551 113.543C100.551 114.573 100.395 115.555 100.085 116.509L109.595 119.6C110.233 117.637 110.551 115.612 110.551 113.543H100.551ZM100.09 116.492C99.8245 117.3 99.4325 117.977 98.9085 118.569L106.396 125.197C107.841 123.565 108.907 121.69 109.589 119.618L100.09 116.492ZM98.9359 118.538C98.4756 119.049 97.8244 119.543 96.8705 119.968L100.942 129.102C103.014 128.178 104.86 126.904 106.369 125.228L98.9359 118.538ZM96.9167 119.948C96.1671 120.273 95.0874 120.52 93.5469 120.52V130.52C96.1262 130.52 98.6193 130.11 100.896 129.122L96.9167 119.948ZM93.5469 120.52C92.4701 120.52 91.7023 120.385 91.1717 120.214L88.1017 129.731C89.8315 130.289 91.6706 130.52 93.5469 130.52V120.52ZM91.1717 120.214C90.5625 120.018 90.1333 119.772 89.8174 119.518L83.5498 127.31C84.911 128.405 86.4505 129.199 88.1017 129.731L91.1717 120.214ZM89.8174 119.518C89.4899 119.255 89.1869 118.911 88.9144 118.436L80.2419 123.415C81.0996 124.909 82.2002 126.225 83.5498 127.31L89.8174 119.518ZM88.9489 118.498C88.6229 117.911 88.3159 117.168 88.0589 116.235L78.4177 118.89C78.8534 120.472 79.4396 121.972 80.2073 123.354L88.9489 118.498ZM88.0764 116.3C87.824 115.333 87.6278 114.22 87.5037 112.948L77.551 113.919C77.7185 115.637 77.9963 117.276 78.4002 118.825L88.0764 116.3ZM87.5037 112.948C87.3756 111.635 87.3086 110.195 87.3086 108.621H77.3086C77.3086 110.475 77.3874 112.242 77.551 113.919L87.5037 112.948ZM87.3086 108.621C87.3086 107.289 87.3808 105.934 87.5269 104.554L77.5825 103.501C77.4005 105.22 77.3086 106.927 77.3086 108.621H87.3086ZM87.5269 104.554C87.6609 103.288 87.8971 102.085 88.2304 100.941L78.629 98.1453C78.1237 99.881 77.7766 101.668 77.5825 103.501L87.5269 104.554ZM88.2304 100.941C88.5459 99.8567 88.9637 98.8659 89.4778 97.9564L80.7722 93.0358C79.8644 94.6419 79.152 96.349 78.629 98.1453L88.2304 100.941ZM89.4662 97.9768C89.9241 97.1754 90.469 96.5172 91.1018 95.9702L84.5623 88.4048C83.044 89.7172 81.7842 91.2647 80.7838 93.0154L89.4662 97.9768ZM91.1067 95.9659C91.6876 95.4625 92.4418 95.009 93.4418 94.6476L90.0426 85.243C88.0165 85.9754 86.1639 87.0167 84.5574 88.4091L91.1067 95.9659ZM93.4418 94.6476C94.2943 94.3395 95.4567 94.125 97.0195 94.125V84.125C94.572 84.125 92.2162 84.4574 90.0426 85.243L93.4418 94.6476ZM97.0195 94.125C97.4682 94.125 97.9339 94.1553 98.418 94.219L99.7226 84.3044C98.8213 84.1859 97.9198 84.125 97.0195 84.125V94.125ZM98.5469 94.2342C99.0428 94.2864 99.4471 94.3594 99.7717 94.4406L102.197 84.7391C101.355 84.5286 100.483 84.3828 99.5937 84.2892L98.5469 94.2342ZM99.9159 94.4743C100.315 94.5616 100.512 94.6324 100.568 94.6551L104.354 85.3996C103.608 85.0942 102.821 84.8733 102.053 84.7053L99.9159 94.4743ZM100.568 94.6551C100.687 94.7038 100.707 94.7168 100.663 94.694C100.638 94.6814 100.57 94.6453 100.474 94.5848C100.386 94.5294 100.21 94.414 100 94.2338L106.508 86.6412C105.69 85.9401 104.708 85.5445 104.354 85.3996L100.568 94.6551ZM100.348 94.5062C99.8294 94.136 99.2824 93.5537 98.9316 92.7352L108.123 88.796C107.663 87.7223 106.934 86.9213 106.16 86.3688L100.348 94.5062ZM99.3671 93.5391C99.08 93.1085 98.9236 92.6926 98.8407 92.3611L108.542 89.9358C108.386 89.3126 108.12 88.6415 107.688 87.9921L99.3671 93.5391ZM98.8838 92.522C98.8468 92.3927 98.8264 92.2917 98.8153 92.2293C98.8041 92.1656 98.7996 92.1244 98.7983 92.1108L108.749 91.1158C108.711 90.74 108.642 90.2736 108.499 89.7748L98.8838 92.522ZM98.804 92.1654C98.8008 92.1365 98.7993 92.1174 98.7987 92.1098C98.7982 92.1019 98.7983 92.1019 98.7987 92.1107C98.7995 92.1298 98.8008 92.1722 98.8008 92.2422H108.801C108.801 91.8903 108.789 91.4789 108.743 91.0611L98.804 92.1654ZM98.8008 92.2422C98.8008 92.4866 98.7937 92.6345 98.7882 92.7064L108.759 93.4733C108.79 93.0712 108.801 92.6541 108.801 92.2422H98.8008ZM98.7734 93.0898C98.7734 92.8768 98.7965 92.2188 99.1919 91.428L108.136 95.9001C108.677 94.8176 108.773 93.7769 108.773 93.0898H98.7734ZM98.9824 91.9084C99.226 91.259 99.7291 90.4422 100.644 89.8319L106.191 98.1524C107.326 97.3964 107.993 96.3608 108.346 95.4197L98.9824 91.9084ZM100.294 90.0878C101.388 89.2129 102.516 89.1016 103.035 89.1016V99.1016C103.882 99.1016 105.265 98.9173 106.541 97.8965L100.294 90.0878ZM103.035 89.1016C103.435 89.1016 103.716 89.1612 103.816 89.1845C103.931 89.2114 103.979 89.2317 103.943 89.2184L100.486 98.6019C101.002 98.7917 101.941 99.1016 103.035 99.1016V89.1016ZM103.943 89.2184C103.465 89.0422 102.937 88.8717 102.377 88.706L99.5366 98.294C99.9617 98.42 100.272 98.5229 100.486 98.6019L103.943 89.2184ZM102.538 88.7566C101.749 88.4935 100.899 88.2961 100.036 88.1411L98.269 97.9839C98.8276 98.0841 99.1806 98.1783 99.3759 98.2434L102.538 88.7566ZM100.058 88.1452C98.9895 87.9484 97.8621 87.8711 96.7188 87.8711V97.8711C97.4347 97.8711 97.9298 97.9214 98.2465 97.9798L100.058 88.1452ZM96.7188 87.8711C94.3376 87.8711 91.9922 88.3614 89.877 89.561L94.8105 98.2593C95.138 98.0735 95.7092 97.8711 96.7188 97.8711V87.8711ZM89.877 89.561C87.9804 90.6367 86.4016 92.101 85.1857 93.9108L93.4862 99.4877C93.838 98.9641 94.2644 98.569 94.8105 98.2593L89.877 89.561ZM85.1557 93.9559C84.0387 95.6581 83.2585 97.5534 82.7592 99.5742L92.4673 101.973C92.7337 100.895 93.102 100.074 93.5162 99.4425L85.1557 93.9559ZM82.7492 99.6153C82.302 101.494 82.0519 103.432 81.987 105.423L91.9817 105.749C92.0262 104.385 92.1954 103.116 92.4773 101.932L82.7492 99.6153ZM89.483 109.917C89.8151 109.725 90.2156 109.516 90.6925 109.293L86.4481 100.238C85.7584 100.562 85.1016 100.9 84.4858 101.255L89.483 109.917ZM90.6393 109.317C91.0406 109.135 91.498 108.959 92.0174 108.795L89.0061 99.2594C88.14 99.5329 87.3031 99.8493 86.5013 100.214L90.6393 109.317ZM91.9821 108.806C92.4604 108.659 92.984 108.536 93.5573 108.443L91.9505 98.5728C90.9561 98.7347 89.9849 98.9581 89.0413 99.2484L91.9821 108.806ZM93.6684 108.423C94.1172 108.34 94.6471 108.289 95.2695 108.289V98.2891C94.1055 98.2891 92.9583 98.384 91.8394 98.5922L93.6684 108.423ZM95.2695 108.289C96.7555 108.289 97.6918 108.499 98.2413 108.72L101.977 99.4441C99.9019 98.6081 97.6117 98.2891 95.2695 98.2891V108.289ZM98.2971 108.742C98.9606 109 99.3012 109.283 99.4955 109.508L107.067 102.976C105.657 101.342 103.883 100.185 101.922 99.422L98.2971 108.742ZM99.5648 109.587C99.8323 109.884 100.057 110.266 100.211 110.824L109.852 108.169C109.313 106.211 108.371 104.423 106.998 102.897L99.5648 109.587ZM100.216 110.842C100.425 111.589 100.551 112.48 100.551 113.543H110.551C110.551 111.689 110.331 109.882 109.847 108.151L100.216 110.842ZM105.793 113.98C105.793 112.585 105.649 111.203 105.309 109.872L95.6203 112.346C95.718 112.729 95.793 113.262 95.793 113.98H105.793ZM105.339 109.992C104.992 108.483 104.346 107.013 103.296 105.728L95.556 112.061C95.5285 112.027 95.5214 112.009 95.5281 112.023C95.5358 112.039 95.5626 112.101 95.5912 112.226L105.339 109.992ZM103.296 105.728C102.198 104.387 100.81 103.456 99.314 102.858L95.6001 112.142C95.6804 112.175 95.6971 112.191 95.6744 112.175C95.6634 112.167 95.6456 112.153 95.6236 112.133C95.6015 112.112 95.5784 112.088 95.556 112.061L103.296 105.728ZM99.314 102.858C97.7314 102.225 96.0456 102.008 94.4219 102.008V112.008C95.2044 112.008 95.542 112.119 95.6001 112.142L99.314 102.858ZM94.4219 102.008C93.43 102.008 92.4444 102.102 91.469 102.286L93.3279 112.112C93.7014 112.041 94.0648 112.008 94.4219 112.008V102.008ZM91.5981 102.264C90.6482 102.418 89.717 102.65 88.8081 102.962L92.0513 112.421C92.4184 112.295 92.7997 112.199 93.1988 112.135L91.5981 102.264ZM88.8906 102.934C88.0314 103.212 87.1968 103.554 86.3889 103.958L90.8611 112.902C91.2198 112.722 91.5884 112.572 91.9688 112.449L88.8906 102.934ZM86.4472 103.929C85.6699 104.305 84.9245 104.734 84.2204 105.221L89.9125 113.443C90.1563 113.274 90.4499 113.101 90.8028 112.93L86.4472 103.929ZM82.0664 109.332C82.0664 111.863 82.2212 114.157 82.5864 116.143L92.4214 114.334C92.2033 113.148 92.0664 111.505 92.0664 109.332H82.0664ZM82.5967 116.197C82.9708 118.111 83.5561 119.976 84.5005 121.591L93.1323 116.542C92.9465 116.224 92.6568 115.537 92.4111 114.279L82.5967 116.197ZM84.5581 121.687C85.5532 123.304 86.9383 124.708 88.7788 125.608L93.1743 116.626C93.1947 116.636 93.2122 116.647 93.2253 116.656C93.2383 116.665 93.2419 116.669 93.2365 116.664C93.2261 116.654 93.1662 116.595 93.0747 116.446L84.5581 121.687ZM88.8569 125.646C90.5037 126.416 92.2573 126.719 93.9844 126.719V116.719C93.4146 116.719 93.163 116.62 93.0963 116.589L88.8569 125.646ZM93.9844 126.719C95.7754 126.719 97.5982 126.381 99.2934 125.516L94.7456 116.609C94.7273 116.619 94.5266 116.719 93.9844 116.719V126.719ZM99.2934 125.516C100.776 124.758 102.07 123.711 103.104 122.375L95.2003 116.25C95.1049 116.373 94.9764 116.492 94.7456 116.609L99.2934 125.516ZM103.141 122.328C104.087 121.076 104.775 119.68 105.198 118.172L95.568 115.476C95.4798 115.791 95.3478 116.054 95.164 116.297L103.141 122.328ZM105.18 118.235C105.587 116.849 105.793 115.426 105.793 113.98H95.793C95.793 114.468 95.7251 114.94 95.586 115.413L105.18 118.235Z" fill="#242546"/>
</svg>
